<?xml version="1.0" standalone="no"?>
    <svg xmlns="http://www.w3.org/2000/svg" viewBox="0 0 1440 320">
    <path fill="#000" fill-opacity="1" d="M0,96L24,101.3C48,107,96,117,144,154.7C192,192,240,256,288,282.7C336,309,384,299,432,288C480,277,528,267,576,245.3C624,224,672,192,720,165.3C768,139,816,117,864,101.3C912,85,960,75,1008,106.7C1056,139,1104,213,1152,208C1200,203,1248,117,1296,90.7C1344,64,1392,96,1416,112L1440,128L1440,320L1416,320C1392,320,1344,320,1296,320C1248,320,1200,320,1152,320C1104,320,1056,320,1008,320C960,320,912,320,864,320C816,320,768,320,720,320C672,320,624,320,576,320C528,320,480,320,432,320C384,320,336,320,288,320C240,320,192,320,144,320C96,320,48,320,24,320L0,320Z"></path>
    </svg>